<svg width="372" height="316" viewBox="0 0 372 316" fill="none" xmlns="http://www.w3.org/2000/svg">
<path d="M27.3113 315.114C20.6246 315.114 16.1668 312.464 13.3806 309.283C-6.12238 286.492 44.0282 202.218 44.5854 201.158L45.1427 200.098C83.0342 138.615 171.076 35.79 337.131 32.6099C350.504 32.6099 367.221 34.1999 371.122 45.8605C375.579 57.5211 362.206 68.6516 350.504 77.1321C317.628 101.513 274.721 128.015 237.944 138.085C238.501 143.915 239.058 150.806 238.501 158.226C237.387 202.748 211.754 287.552 183.893 308.753C176.091 314.584 168.847 315.114 164.39 314.054C156.031 312.464 149.344 307.693 144.887 299.743C135.414 282.782 137.085 254.161 144.329 226.069C114.796 257.341 69.6607 302.393 39.0132 313.524C34.5553 314.584 30.6547 315.114 27.3113 315.114ZM338.802 49.0407C338.245 49.0407 337.688 49.0407 337.688 49.0407C179.992 51.6908 95.8505 150.276 59.6306 208.579L59.0734 209.639C39.5704 240.91 19.5101 292.323 26.1969 299.213C26.7541 299.213 28.983 299.743 33.4409 298.153C76.3475 283.312 158.817 185.257 159.932 184.197C162.718 181.017 167.176 180.487 170.519 182.607C173.863 184.727 175.534 188.968 173.863 192.678C157.146 229.25 150.459 275.362 159.932 292.323C162.718 297.093 165.504 298.153 167.733 298.683C169.405 299.213 171.634 297.623 173.305 296.563C194.48 280.662 220.113 201.688 221.784 158.226C221.784 151.866 221.784 147.096 221.227 142.325C212.311 143.385 204.51 143.385 196.709 141.795C194.48 141.265 183.335 138.615 179.435 130.135C177.763 126.955 176.649 122.184 179.435 116.354C185.564 104.693 200.052 101.513 207.853 102.043C210.082 102.043 217.884 102.573 225.128 109.464C229.028 113.174 231.814 117.414 234.043 123.244C261.905 115.294 298.125 95.683 340.474 64.9415C351.061 57.5211 353.847 53.2809 354.962 51.1608C353.29 50.1007 347.161 49.0407 338.802 49.0407ZM195.037 123.244C196.152 124.304 198.938 125.364 201.167 125.894C206.182 126.955 211.754 126.955 217.884 126.424C215.097 120.064 211.197 117.944 208.411 117.944C207.854 117.944 197.823 117.414 195.037 123.244Z" fill="#6240A8"/>
<path d="M168.29 66.5308C149.344 66.5308 133.742 51.6902 133.742 33.6694C133.742 15.6487 149.344 0.808105 168.29 0.808105C187.236 0.808105 202.838 15.6487 202.838 33.6694C202.838 51.6902 187.236 66.5308 168.29 66.5308ZM168.29 16.7087C158.817 16.7087 150.459 24.129 150.459 33.6694C150.459 43.2098 158.26 50.6301 168.29 50.6301C178.32 50.6301 186.122 43.2098 186.122 33.6694C186.122 24.129 178.32 16.7087 168.29 16.7087Z" fill="#6240A8"/>
<path d="M132.07 142.856C127.055 142.856 120.926 142.326 114.796 140.736C97.5222 137.026 76.9048 128.015 57.4017 115.295C19.5102 90.9136 -11.1374 54.872 3.90778 34.201C10.5945 24.6606 25.6397 21.4805 45.6999 26.2507C62.974 29.9608 83.5915 38.9712 103.095 51.6918C122.598 64.4124 138.757 78.7231 149.344 93.0337C161.046 108.934 163.832 123.245 157.146 132.786C152.131 139.146 143.772 142.856 132.07 142.856ZM28.4258 40.0313C22.8536 40.0313 18.953 41.0913 17.8385 43.2114C12.2662 50.6318 29.5403 77.663 66.8746 102.044C84.706 113.705 103.094 121.655 118.697 125.365C132.628 128.545 140.986 126.955 143.215 123.775C145.444 120.595 143.772 112.645 135.414 102.044C126.498 89.3235 111.453 76.603 93.6216 64.9424C75.7903 53.2819 57.4017 45.3315 41.7993 41.6214C36.7843 40.5613 32.3264 40.0313 28.4258 40.0313Z" fill="#6240A8"/>
</svg>
